HIERARCHY
ROOT joint_Root
{
	OFFSET 0.0 0.0 0.0
	CHANNELS 6 Xposition Yposition Zposition Zrotation Xrotation Yrotation 
	JOINT Hips
	{
		OFFSET 4.5925 91.4895 -427.239
		CHANNELS 6 Xposition Yposition Zposition Zrotation Xrotation Yrotation 
		JOINT Spine
		{
			OFFSET 15.7357 0.0 0.0
			CHANNELS 6 Xposition Yposition Zposition Zrotation Xrotation Yrotation 
			JOINT Chest
			{
				OFFSET 8.98455 -0.406207 0.0
				CHANNELS 6 Xposition Yposition Zposition Zrotation Xrotation Yrotation 
				JOINT Neck
				{
					OFFSET 16.3773 0.0 0.0
					CHANNELS 6 Xposition Yposition Zposition Zrotation Xrotation Yrotation 
					JOINT Head
					{
						OFFSET 6.45672 0.0 0.0
						CHANNELS 6 Xposition Yposition Zposition Zrotation Xrotation Yrotation 
						End Site
						{
							OFFSET 0.0 0.0 0.0
						}
					}
				}
				JOINT Shoulder_L
				{
					OFFSET 12.9942 -0.242716 4.98039
					CHANNELS 6 Xposition Yposition Zposition Zrotation Xrotation Yrotation 
					JOINT UpperArm_L
					{
						OFFSET 5.34809 0.0 0.0
						CHANNELS 6 Xposition Yposition Zposition Zrotation Xrotation Yrotation 
						JOINT LowerArm_L
						{
							OFFSET 24.3286 1.87007e-05 0.0
							CHANNELS 6 Xposition Yposition Zposition Zrotation Xrotation Yrotation 
							JOINT Hand_L
							{
								OFFSET 22.2916 0.0 0.0
								CHANNELS 6 Xposition Yposition Zposition Zrotation Xrotation Yrotation 
								End Site
								{
									OFFSET 0.0 0.0 0.0
								}
							}
						}
					}
				}
				JOINT Shoulder_R
				{
					OFFSET 12.9945 -0.242716 -4.98039
					CHANNELS 6 Xposition Yposition Zposition Zrotation Xrotation Yrotation 
					JOINT UpperArm_R
					{
						OFFSET -5.34813 0.0 0.0
						CHANNELS 6 Xposition Yposition Zposition Zrotation Xrotation Yrotation 
						JOINT LowerArm_R
						{
							OFFSET -24.3289 0.000322201 0.0
							CHANNELS 6 Xposition Yposition Zposition Zrotation Xrotation Yrotation 
							JOINT Hand_R
							{
								OFFSET -22.2915 -0.000108084 0.0
								CHANNELS 6 Xposition Yposition Zposition Zrotation Xrotation Yrotation 
								End Site
								{
									OFFSET 0.0 0.0 0.0
								}
							}
						}
					}
				}
			}
		}
		JOINT UpperLeg_L
		{
			OFFSET -2.19248 -6.46944 0.0
			CHANNELS 6 Xposition Yposition Zposition Zrotation Xrotation Yrotation 
			JOINT LowerLeg_L
			{
				OFFSET 39.0811 0.0 -1.23785e-05
				CHANNELS 6 Xposition Yposition Zposition Zrotation Xrotation Yrotation 
				JOINT Foot_L
				{
					OFFSET 40.9854 0.0 -1.26872e-05
					CHANNELS 6 Xposition Yposition Zposition Zrotation Xrotation Yrotation 
					JOINT Toes_L
					{
						OFFSET 11.7543 0.0 0.0
						CHANNELS 6 Xposition Yposition Zposition Zrotation Xrotation Yrotation 
						End Site
						{
							OFFSET 0.0 0.0 0.0
						}
					}
				}
			}
		}
		JOINT UpperLeg_R
		{
			OFFSET -2.19251 6.46944 0.0
			CHANNELS 6 Xposition Yposition Zposition Zrotation Xrotation Yrotation 
			JOINT LowerLeg_R
			{
				OFFSET -39.0811 -0.00228153 -0.0401928
				CHANNELS 6 Xposition Yposition Zposition Zrotation Xrotation Yrotation 
				JOINT Foot_R
				{
					OFFSET -40.9854 0.0 0.0
					CHANNELS 6 Xposition Yposition Zposition Zrotation Xrotation Yrotation 
					JOINT Toes_R
					{
						OFFSET -11.7543 0.0 0.0
						CHANNELS 6 Xposition Yposition Zposition Zrotation Xrotation Yrotation 
						End Site
						{
							OFFSET 0.0 0.0 0.0
						}
					}
				}
			}
		}
	}
}
MOTION
Frames:	6
Frame Time:	0.0333333
0.000000 0.000000 0.000000 0.000000 0.000000 -0.000000 -0.108777 90.699200 4.013320 89.093500 -3.065670 9.200150 15.735700 0.000005 -0.000001 88.315200 82.234600 -88.816100 8.984550 -0.406207 -0.000000 7.756360 -0.454709 -0.969921 16.377300 -0.000001 -0.000001 2.303890 -3.609580 2.684230 6.456720 -0.000001 -0.000000 -16.032500 -2.073820 1.267460 12.994200 -0.242716 4.980390 -91.894200 6.792080 -74.377300 5.348090 -0.000007 -0.000001 -59.547300 43.385500 -17.340900 24.328600 0.000019 0.000005 8.062920 21.145400 -21.439800 22.291600 -0.000001 0.000005 10.630100 5.266290 0.998172 12.994500 -0.242716 -4.980390 88.440200 11.350900 -82.122800 -5.348130 -0.000001 -0.000004 -62.631700 30.207800 -10.571800 -24.328900 0.000322 -0.000009 1.227280 3.656450 -18.583500 -22.291500 -0.000108 -0.000004 13.817300 5.396650 -2.829040 -2.192480 -6.469440 -0.000000 -174.678000 -10.619400 2.936220 39.081100 -0.000007 -0.000012 -0.140438 0.252795 29.054100 40.985400 -0.000006 -0.000013 0.314063 5.087360 -72.650700 11.754300 -0.000000 0.000003 -0.000086 -0.000902 -16.612300 -2.192510 6.469440 -0.000001 173.472000 18.310300 -175.357000 -39.081100 -0.002282 -0.040193 -0.150891 0.295309 27.571800 -40.985400 0.000008 0.000006 2.418720 12.838400 -72.394000 -11.754300 -0.000006 -0.000006 -0.003821 -0.049563 -18.589100
0.000000 0.000000 0.000000 0.000000 0.000000 -0.000000 -0.043036 90.714400 3.889480 89.029600 -3.252930 9.199770 15.735700 0.000005 -0.000001 88.744800 82.153100 -89.331200 8.984550 -0.406207 -0.000000 7.922550 -0.343148 -1.148010 16.377300 -0.000001 -0.000001 2.663440 -3.623290 2.580900 6.456720 -0.000001 -0.000000 -15.521700 -2.091810 1.106570 12.994200 -0.242716 4.980390 -91.893800 6.732160 -74.248500 5.348090 -0.000007 -0.000001 -59.599400 43.268100 -17.199000 24.328600 0.000019 0.000005 7.988740 21.234200 -21.180500 22.291600 -0.000001 0.000005 10.554200 5.265390 1.022520 12.994500 -0.242716 -4.980390 88.386700 11.427400 -81.909200 -5.348130 -0.000001 -0.000004 -62.684000 28.244700 -10.035300 -24.328900 0.000322 -0.000009 1.189580 3.386660 -19.384300 -22.291500 -0.000108 -0.000004 14.020100 5.415050 -3.432950 -2.192480 -6.469440 -0.000000 -174.659000 -10.714200 2.850380 39.081100 -0.000007 -0.000012 -0.140574 0.252586 29.097800 40.985400 -0.000006 -0.000013 0.342649 5.003680 -72.603600 11.754300 -0.000000 0.000003 -0.000087 -0.000913 -16.612700 -2.192510 6.469440 -0.000001 173.560000 18.200000 -175.492000 -39.081100 -0.002282 -0.040193 -0.145224 0.284336 27.581700 -40.985400 0.000008 0.000006 2.483480 12.869100 -72.299200 -11.754300 -0.000006 -0.000006 -0.004026 -0.051708 -18.676500
0.000000 0.000000 0.000000 0.000000 0.000000 -0.000000 0.026828 90.724300 3.786990 88.963300 -3.400390 9.307730 15.735700 0.000005 -0.000001 88.929300 82.066100 -89.609700 8.984550 -0.406207 -0.000000 8.097660 -0.297179 -1.338310 16.377300 -0.000001 -0.000001 3.173180 -3.583440 2.448480 6.456720 -0.000001 -0.000000 -15.049000 -2.105770 1.016850 12.994200 -0.242716 4.980390 -91.902100 6.698340 -74.107300 5.348090 -0.000007 -0.000001 -59.604300 43.090800 -16.962400 24.328600 0.000019 0.000005 7.973230 21.351600 -21.041500 22.291600 -0.000001 0.000005 10.561600 5.263880 1.063130 12.994500 -0.242716 -4.980390 88.328900 11.470000 -81.653300 -5.348130 -0.000001 -0.000004 -62.461400 26.337900 -9.695500 -24.328900 0.000322 -0.000009 0.902608 2.465300 -20.138600 -22.291500 -0.000108 -0.000004 13.950000 5.429290 -3.914360 -2.192480 -6.469440 -0.000000 -174.647000 -10.713200 2.873040 39.081100 -0.000007 -0.000012 -0.138598 0.248442 29.156000 40.985400 -0.000006 -0.000013 0.359116 4.855670 -72.576000 11.754300 -0.000000 0.000003 -0.000092 -0.000962 -16.614500 -2.192510 6.469440 -0.000001 173.588000 18.121500 -175.477000 -39.081100 -0.002282 -0.040193 -0.139573 0.273571 27.577200 -40.985400 0.000008 0.000006 2.494850 12.947500 -72.206000 -11.754300 -0.000006 -0.000006 -0.003850 -0.049869 -18.601600
0.000000 0.000000 0.000000 0.000000 0.000000 -0.000000 0.121984 90.723600 3.696840 88.936700 -3.610280 9.426650 15.735700 0.000005 -0.000001 89.149000 81.954200 -89.942700 8.984550 -0.406207 -0.000000 8.322640 -0.241750 -1.568230 16.377300 -0.000001 -0.000001 3.575460 -3.547740 2.355770 6.456720 -0.000001 -0.000000 -14.491700 -2.020210 0.842462 12.994200 -0.242716 4.980390 -91.910000 6.675310 -73.992400 5.348090 -0.000007 -0.000001 -59.438500 42.857600 -16.887400 24.328600 0.000019 0.000005 7.977250 21.422100 -20.991000 22.291600 -0.000001 0.000005 10.396600 5.260990 1.140410 12.994500 -0.242716 -4.980390 88.275300 11.459000 -81.381600 -5.348130 -0.000001 -0.000004 -61.994500 24.168800 -9.752460 -24.328900 0.000322 -0.000009 0.774202 2.060610 -20.623000 -22.291500 -0.000108 -0.000004 14.317800 5.436180 -4.152180 -2.192480 -6.469440 -0.000000 -174.699000 -10.737300 2.917970 39.081100 -0.000007 -0.000012 -0.135010 0.241266 29.231200 40.985400 -0.000006 -0.000013 0.380966 4.637220 -72.578600 11.754300 -0.000000 0.000003 -0.000091 -0.000954 -16.614200 -2.192510 6.469440 -0.000001 173.536000 18.005300 -175.483000 -39.081100 -0.002282 -0.040193 -0.143686 0.280754 27.635100 -40.985400 0.000008 0.000006 2.429310 13.070100 -72.124600 -11.754300 -0.000006 -0.000006 -0.004024 -0.051693 -18.675800
0.000000 0.000000 0.000000 0.000000 0.000000 -0.000000 0.215045 90.725400 3.591030 88.897900 -3.785510 9.584980 15.735700 0.000005 -0.000001 89.217600 81.851500 -90.104700 8.984550 -0.406207 -0.000000 8.528350 -0.227375 -1.755650 16.377300 -0.000001 -0.000001 4.036990 -3.504390 2.281690 6.456720 -0.000001 -0.000000 -13.804200 -1.880970 0.439333 12.994200 -0.242716 4.980390 -91.931900 6.727740 -73.938100 5.348090 -0.000007 -0.000001 -59.210600 42.638900 -16.803700 24.328600 0.000019 0.000005 7.933000 21.457200 -20.853500 22.291600 -0.000001 0.000005 10.496400 5.261780 1.119280 12.994500 -0.242716 -4.980390 88.238700 11.468700 -81.208600 -5.348130 -0.000001 -0.000004 -61.284100 21.518000 -9.966790 -24.328900 0.000322 -0.000009 0.633981 1.660810 -20.929700 -22.291500 -0.000108 -0.000004 15.017800 5.437620 -4.202340 -2.192480 -6.469440 -0.000000 -174.728000 -10.694500 2.993880 39.081100 -0.000007 -0.000012 -0.134475 0.239610 29.302500 40.985400 -0.000006 -0.000013 0.401401 4.447720 -72.571700 11.754300 -0.000000 0.000003 -0.000090 -0.000942 -16.613800 -2.192510 6.469440 -0.000001 173.493000 17.877900 -175.440000 -39.081100 -0.002282 -0.040193 -0.147037 0.286737 27.669300 -40.985400 0.000008 0.000006 2.351620 13.177800 -72.026000 -11.754300 -0.000006 -0.000006 -0.004127 -0.052753 -18.719000
0.000000 0.000000 0.000000 0.000000 0.000000 -0.000000 0.317943 90.721300 3.511690 88.831000 -4.072580 9.697070 15.735700 0.000005 -0.000001 89.423500 81.785200 -90.379100 8.984550 -0.406207 -0.000000 8.662100 -0.171970 -1.896510 16.377300 -0.000001 -0.000001 4.465170 -3.484300 2.173270 6.456720 -0.000001 -0.000000 -12.918700 -1.783450 -0.099091 12.994200 -0.242716 4.980390 -91.962500 6.783440 -73.822900 5.348090 -0.000007 -0.000001 -58.911100 42.563700 -16.866600 24.328600 0.000019 0.000005 7.877360 21.555800 -20.635300 22.291600 -0.000001 0.000005 10.511700 5.259830 1.171710 12.994500 -0.242716 -4.980390 88.202200 11.479700 -81.037600 -5.348130 -0.000001 -0.000004 -60.282400 18.543100 -10.409200 -24.328900 0.000322 -0.000009 0.359438 0.932625 -21.134700 -22.291500 -0.000108 -0.000004 15.416200 5.437640 -4.203330 -2.192480 -6.469440 -0.000000 -174.705000 -10.860600 3.022370 39.081100 -0.000007 -0.000012 -0.131461 0.233103 29.421600 40.985400 -0.000006 -0.000013 0.447217 4.304440 -72.595900 11.754300 -0.000000 0.000003 -0.000095 -0.000984 -16.615400 -2.192510 6.469440 -0.000001 173.495000 17.686800 -175.450000 -39.081100 -0.002282 -0.040193 -0.150333 0.292556 27.707000 -40.985400 0.000008 0.000006 2.239320 13.318600 -71.922600 -11.754300 -0.000006 -0.000006 -0.004021 -0.051662 -18.674600
